/* XPM */
static char *_2f4415adcf64b9fbb4fa1d6b734252c0kxRol2btBq9RJR9[] = {
/* columns rows colors chars-per-pixel */
"40 40 140 2 ",
"   c None",
".  c black",
"X  c #030302",
"o  c #1B1A12",
"O  c #1C1D16",
"+  c #413D2C",
"@  c #8B8E6C",
"#  c #9A9068",
"$  c #9F956B",
"%  c #A2966D",
"&  c #A49A6F",
"*  c #AAA072",
"=  c #AFA376",
"-  c #A4A77F",
";  c #BAAE7F",
":  c #C1B482",
">  c #C3B684",
",  c #C4B784",
"<  c #C5B785",
"1  c #C4B885",
"2  c #C5B885",
"3  c #C5B985",
"4  c #C6B986",
"5  c #C7BA86",
"6  c #C7BB87",
"7  c #C8BB87",
"8  c #C9BC88",
"9  c #CABE89",
"0  c #CABF8A",
"q  c #CFC28E",
"w  c #DFCF8D",
"e  c #CAC390",
"r  c #CECB98",
"t  c #CFCC98",
"y  c #D8CA92",
"u  c #DACC93",
"i  c #DBCC93",
"p  c #DCCD92",
"a  c #DDCD92",
"s  c #DCCD93",
"d  c #D9CD95",
"f  c #DACC94",
"g  c #DBCC94",
"h  c #DBCD94",
"j  c #DBCD95",
"k  c #DCCE95",
"l  c #DCCE96",
"z  c #DECF96",
"x  c #DBCF98",
"c  c #DED096",
"v  c #DDD198",
"b  c #E1CF8A",
"n  c #E1CF8B",
"m  c #E0CF8C",
"M  c #E1D088",
"N  c #E2D088",
"B  c #E2D089",
"V  c #E3D189",
"C  c #E1D08A",
"Z  c #E1D08B",
"A  c #E3D18A",
"S  c #E3D28A",
"D  c #E4D28B",
"F  c #E3D38D",
"G  c #E5D38C",
"H  c #E3D48E",
"J  c #E3D58F",
"K  c #E6D48E",
"L  c #E6D58F",
"P  c #E9D793",
"I  c #E9D893",
"U  c #E9D894",
"Y  c #EBDA97",
"T  c #E0D79E",
"R  c #E6DE9D",
"E  c #EDDD9A",
"W  c #EEDD9B",
"Q  c #E8D99C",
"!  c #E9DA9D",
"~  c #EFDF9D",
"^  c #EDDE9F",
"/  c #EFDF9E",
"(  c #F0DF9E",
")  c #F0E09F",
"_  c #CFD3A1",
"`  c #D3D4A0",
"'  c #D6D9A6",
"]  c #E1D9A0",
"[  c #E1DAA0",
"{  c #E1DAA1",
"}  c #E2DDA3",
"|  c #E4E0A7",
" . c #E4E1A8",
".. c #E5E4AA",
"X. c #E6E5AC",
"o. c #E7E6AD",
"O. c #E7E7AD",
"+. c #E7E7AE",
"@. c #E9E7A9",
"#. c #E8E8AF",
"$. c #F0E0A0",
"%. c #F1E1A0",
"&. c #F0E1A1",
"*. c #F1E1A1",
"=. c #F2E1A1",
"-. c #F1E2A1",
";. c #F1E1A2",
":. c #F1E2A3",
">. c #F2E2A3",
",. c #F0E1A5",
"<. c #F2E3A4",
"1. c #F2E3A5",
"2. c #F3E3A5",
"3. c #F2E3A8",
"4. c #F4E4A8",
"5. c #F4E6AB",
"6. c #F5E7AC",
"7. c #F6E8AE",
"8. c #F6E8AF",
"9. c #E8E9B0",
"0. c #E8EAB0",
"q. c #E9ECB2",
"w. c #E8ECB3",
"e. c #EAECB3",
"r. c #EAEEB5",
"t. c #EBEFB5",
"y. c #EBEFB6",
"u. c #F7E9B1",
"i. c #F8EBB5",
"p. c #F9ECB8",
"a. c #FAEDB8",
"s. c #FBEEBB",
"d. c #FBEFBD",
"f. c #EBF0B6",
"g. c #EBF0B7",
"h. c #ECF0B7",
"j. c #FCF0BF",
"k. c #FDF1C1",
"l. c #FDF1C2",
"z. c #FEF2C3",
/* pixels */
"                                                                                ",
"                                                                                ",
"                                                                                ",
"                                                                                ",
"                                                                                ",
"                                                                                ",
"                                  . . . . . . .                                 ",
"                  . . . . . . . . . . . . . . . . . .                           ",
"                . . . . .     f f f f f f f ..y.  . . .                         ",
"                . .   f f k Q 8.j.z.z.5.Q c [ 9.y.h.0 . .                       ",
"                . % f f &.i.z.z.z.z.z.a.z.<.&.&.&.h.h.o . . . . . . .           ",
"                . $ f &.&.z.z.z.z.z.z.z.z.&.&.&.&.h.h.f . . . . . . . .         ",
"                . : f f ^ u.&.&.<.&.<.<.&.&.h.h.h.h.[ f f f f } f f * .         ",
"                . w.k f w N N N b s f y.h.h.y.y.J N b f & + # h.| | 7 .         ",
"              . . h.T w N N N N N N N N J F N N N N N . . . . . h.h.0 .         ",
"              . . h.9.N N N N N N N N N N N N N N N m = .     . . h.f .         ",
"              . . h.y.N N N N N N N N N N N N N N N f 3 .     . . h.v . .       ",
"              . . h.g.&.&.P I N N N N N N N N N N N s y .     . . h.f . .       ",
"              . . h.g.) &.&.&.^ N N N N N N N N N N s f .     . . h.f . .       ",
"              . . h.g.N &.&.&.&.G N N N N N N N N N s 3 .     . . h.f . .       ",
"              . . h.y.N &.z.a.&.W N N N N N N N N N i 3 .     . . h.f .         ",
"              . . h.+.N &.z.d.&.&.&.L N N N N N N N s 0 .     . . h.f .         ",
"              . . h. .N &.z.z.5.&.&.&.N N N N N N N f 3 .     . . h.e .         ",
"              . . h.+.N &.z.z.z.&.&.&.N N N N N N N f 3 .     . . ' r .         ",
"              . . h. .N Y 6.z.z.<.^ &.&.N N N N N N f 7 .     . . h.t .         ",
"                . h.[ N N &.z.z.z.a.&.&.&.D N N N N f 7 . . . . . h.3 .         ",
"                . _ 9.N N L &.8.z.z.z.z.&.&.( N N N s f . . . . ` h., .         ",
"                . - h.N N N &.&.&.z.z.z.z.&.W N N N s f > f f y.h.y.; .         ",
"                . O h.N N N &.D ) &.Y <.3.W N N N N f f & 0 3 3 0 3 . .         ",
"                . . q N N N N N N L N N N N N N N N f . . . . . . . .           ",
"                  . . y.N N N N N N N N N N N N s k i .                         ",
"                    . . h.R @.+.+.+.#.w.g.h.h.h.h.h., .                         ",
"                      . . @ h.h.h.h.h.h.h.g.g.w.+.x . .                         ",
"                        . . . . . . . . . . . . . . . .                         ",
"                          . . . . . . . . . . . . .                             ",
"                                                                                ",
"                                                                                ",
"                                                                                ",
"                                                                                ",
"                                                                                "
};
