/* XPM */
static char *_485cce694104e649c9ad0ea8e42cfdb[] = {
/* columns rows colors chars-per-pixel */
"40 40 10 1 ",
"  c None",
". c black",
"X c #E3C760",
"o c #F4DD8A",
"O c #F4E098",
"+ c #FAE9AE",
"@ c #FBE9AE",
"# c #F8E8B3",
"$ c #FAF3D5",
"% c #FAF3D6",
/* pixels */
"                                        ",
"                                        ",
"                                        ",
"                                        ",
"                                        ",
"                                        ",
"             ............               ",
"           ...++++++++++...             ",
"          ..+++OOOOOOOO+++..            ",
"         ..++OO$$oX#o$oOO++..           ",
"        ..++OOO$#X$$oX#$O+++.           ",
"        .+++O$#X$$$o#oX#++O+.......     ",
"        .+O++o$X#X#$$$oo+OO+++++++.     ",
"        .+Oo++++++oooXO++oO+OOOOO+.     ",
"        .+Ooooo+++++++++ooO+....O+.     ",
"        .+Oooo$$ooooooooooO+.  .O+.     ",
"        .+Oooo$$ooooooooooO+.  .O+.     ",
"        .+OoooooooooooooooO+.  .O+.     ",
"        .+Ooo$ooooooooooooO+.  .O+.     ",
"        .+Ooo$ooooooooooooO+.  .O+.     ",
"        .+Ooo$$oooooooooooO+.  .O+.     ",
"        .+Ooo$$oooooooooooO+.  .O+.     ",
"        .+Ooo$$$ooooooooooO+.  .O+.     ",
"        .+Ooo$$$ooooooooooO+.  .O+.     ",
"        .+Ooo$$$$oooooooooO+.  .O+.     ",
"        .+Ooo$$$$oooooooooO+.  .O+.     ",
"        .+Oooo$$$$ooooooooO+....O+.     ",
"        .+Oooooo$$ooooooooO+OOOOO+.     ",
"        .++oooooo$$oooooooO+++++++.     ",
"        ..++OooooooooooooO++.......     ",
"         ..++OooooooooooO++..           ",
"          ..+++OOOOOOOOO++..            ",
"           ..++++++++++++..             ",
"            ..............              ",
"                                        ",
"                                        ",
"                                        ",
"                                        ",
"                                        ",
"                                        "
};
