/* XPM */
static char *_344683c1bb7457dbfd170e6a4cab43dzgzldpJteCQTKozX[] = {
/* columns rows colors chars-per-pixel */
"40 40 106 2 ",
"   c None",
".  c black",
"X  c #010100",
"o  c #010101",
"O  c #030201",
"+  c #040302",
"@  c #050402",
"#  c #050403",
"$  c #080604",
"%  c #090705",
"&  c #0A0806",
"*  c #0C0906",
"=  c #150F0B",
"-  c #16100B",
";  c #17110C",
":  c #1A130D",
">  c #241A12",
",  c #302319",
"<  c #34261B",
"1  c #35271C",
"2  c #392A1D",
"3  c #3B2B1E",
"4  c #3E2D20",
"5  c #4A3726",
"6  c #503B2A",
"7  c #513C28",
"8  c #57402D",
"9  c #58412D",
"0  c #674B35",
"q  c #7A5A3F",
"w  c #7C5B40",
"e  c #8F694B",
"r  c #9C7250",
"t  c #9F7551",
"y  c #A07552",
"u  c #A87B56",
"i  c #B0815A",
"p  c #B2825B",
"a  c #B3835B",
"s  c #BB8960",
"d  c #BC8A60",
"f  c #BE8B61",
"g  c #BF8C61",
"h  c #BF8C62",
"j  c #C08D62",
"k  c #C18F63",
"l  c #C49065",
"z  c #C59065",
"x  c #C89367",
"c  c #CA9467",
"v  c #CB9568",
"b  c #CD9669",
"n  c #CF976A",
"m  c #D29A6C",
"M  c #D49A6C",
"N  c #D49B6C",
"B  c #D59B6C",
"V  c #D49B6D",
"C  c #D59C6C",
"Z  c #D49C6D",
"A  c #D59C6D",
"S  c #D59D6D",
"D  c #D69D6C",
"F  c #D69C6D",
"G  c #D69D6D",
"H  c #D69D6E",
"J  c #D79D6E",
"K  c #D79E6F",
"L  c #D89F6F",
"P  c #D89F70",
"I  c #D99F70",
"U  c #D9A071",
"Y  c #DBA273",
"T  c #DCA273",
"R  c #DCA373",
"E  c #DDA474",
"W  c #DFA575",
"Q  c #DFA576",
"!  c #E0A677",
"~  c #E1A778",
"^  c #E2A879",
"/  c #E3A979",
"(  c #E3A97A",
")  c #E4AA7A",
"_  c #E5AB7B",
"`  c #E5AB7C",
"'  c #E6AB7C",
"]  c #E7AD7C",
"[  c #E7AD7D",
"{  c #E8AE7D",
"}  c #E8AD7E",
"|  c #E8AE7E",
" . c #E9AE7E",
".. c #E9AF7F",
"X. c #EAAF7F",
"o. c #EAB080",
"O. c #EBB181",
"+. c #ECB181",
"@. c #ECB182",
"#. c #ECB282",
"$. c #EDB282",
"%. c #EDB383",
"&. c #EEB383",
"*. c #EEB483",
"=. c #EFB484",
"-. c #EFB585",
/* pixels */
"                                                                                ",
"                                                                                ",
"                                                                                ",
"                          . . . . . . . . . . . . . . . . .                     ",
"                      . . . * , 3 5 9     f g f s g a : . . . . . .             ",
"                    . . r A A A A A A B A A A T %.%.L A A A m u . . .           ",
"                  . . x A A T ] ] ! A A A A =.=.=.=.=.A A A A A A c . .         ",
"                  . g A A =.=.=.=.=.=.A A A =.=.=.=.=.=.A A A A A A A . .       ",
"                . . A A A =.O.=.=.=.=.=.A A %.=.=.=.=.=.T A ~ =.=.A A ; .       ",
"                . . A A A =.=.=.=.=.=.=.%.A A =.=.=.=.=.L A %.=.=.=.A B .       ",
"                . . A A { =.=.=.=.=.=.=.=.A A / =.=.=.=.W A A %.=.=.A A . .     ",
"                . . A A A O.=.=.=.%.=.=.=.=.A A %.=.=.=.A A A A W =.! A . .     ",
"              . . w A A A A A =.=.=.=.=.=.=.A A A A A k . . . B A A A A . .     ",
"            . . z A *.=.=.W A A ` =.=.=.=.=.O.A A A   . . . . . - a A A . .     ",
"          . . b A ` =.*.=.=.=.A A A =.=.=.=.{ A A   . .       . . . . y . .     ",
"          . . A A =.=.=.=.=.=.=.) A A =.=.=.A A e . .               . . . .     ",
"          . 1 A A =.=.=.=.=.=.=.=.) A A %.A A t . .                   . . .     ",
"          . , A A =.=.=.=.=.=.=.=.=.U A A A f . .                               ",
"          . = A { =.=.=.=.=.=.=.=.=.~ A A a . .                                 ",
"          . % A %.=.=.=.=.=.=.=.=.=.A A % . .                                   ",
"          . . A A A A A P { %.=.=.A A . . .                                     ",
"            . > A A A A A A A A A A   . .                                       ",
"            . . + A =.=.=.=.%.W A B . .                                         ",
"              . # { =.=.=.=.=.%.A . .                                           ",
"            . . c ) =.=.=.=.=.%.A . .                                           ",
"            . . A / =.=.=.=.=.%.z .                                             ",
"              . q P =.=.=.=.=.O.3 .                                             ",
"              . . A =.=.=.=.=.W 8 .                                             ",
"                . < U { =./ P A q .                                             ",
"                . . k A A A A A v .                                             ",
"                  . . . b =.=.%.A .                                             ",
"                      . 0 O.=.=.B .                                             ",
"                      . - A =.=.A . .                                           ",
"                      . . 4 O.=.{ 7 . .                                         ",
"                        . . . + 6 b & . .                                       ",
"                            . . . . . : .                                       ",
"                              . # . . . .                                       ",
"                                                                                ",
"                                                                                ",
"                                                                                "
};
