/* XPM */
static char *b7868191544e4177bec16f8724a35e87[] = {
/* columns rows colors chars-per-pixel */
"40 40 7 1 ",
"  c None",
". c black",
"X c #DA8A4B",
"o c #D98A4C",
"O c #D98A4D",
"+ c #DA8A4D",
"@ c #FAB17C",
/* pixels */
"                                        ",
"                                        ",
"                                        ",
"                                        ",
"                                        ",
"                                        ",
"                                        ",
"          ...                           ",
"          .o.                           ",
"         ..o..                          ",
"         .ooo.                          ",
"        ..o@o.                          ",
"        .Xo@o.                          ",
"        .o@@o..                         ",
"       ..o@@Xo..                        ",
"       .oo@@@oo..                       ",
"       .o@@@@Xoo.                       ",
"       .X@@@Xo@X...                     ",
"      ..o@XXX@@ooo...                   ",
"      .ooXX@@@@@@ooo..                  ",
"      .oX@@@@@@@ooooo..                 ",
"      .o@@@@@@ooo@@@Xo.                 ",
"      .o@@@@@oo@@@@@@o..                ",
"      .X@@@@oo@@@@@@@oo..               ",
"      .X@@oo@@@@@@@@@ooo.               ",
"      .Xooo@@@@@@@@@@ooX..              ",
"      ..Xoo@@@@@@@@@oo@oo.              ",
"       ..o@@@@@@@@@@o@@@o..             ",
"        .o@@@@@@@@@oo@@@oo...           ",
"        .oo@@@@@@@oo@@@@XXoo......      ",
"        ..oo@@@oooo@@@@XX@XXXoooo.      ",
"         ...oooo@@@@@@XX@@@@@@oo..      ",
"           ...o@@@@@@XX@@@@@@oo..       ",
"             ..XX@@@XX@@@@@@oo..        ",
"              ..oXoooo@@@@ooo..         ",
"               ......Xooooo...          ",
"                    ........            ",
"                                        ",
"                                        ",
"                                        "
};
