/* XPM */
static char *_68aee38f5004420dca7d8a12ae10050yZHp0M1EoIVzLV9q[] = {
/* columns rows colors chars-per-pixel */
"40 40 113 2 ",
"   c None",
".  c black",
"X  c #010000",
"o  c #010100",
"O  c #020101",
"+  c #020201",
"@  c #030201",
"#  c #030301",
"$  c #060201",
"%  c #040402",
"&  c #050402",
"*  c #090403",
"=  c #0B0403",
"-  c #0E0604",
";  c #130F07",
":  c #1D0C08",
">  c #3B1810",
",  c #312813",
"<  c #2F0C35",
"1  c #481D13",
"2  c #4D1F15",
"3  c #4D2015",
"4  c #4E2015",
"5  c #4E2115",
"6  c #502115",
"7  c #522215",
"8  c #552316",
"9  c #5D2916",
"0  c #57281D",
"q  c #43371A",
"w  c #46391A",
"e  c #45381C",
"r  c #643D33",
"t  c #3F5C27",
"y  c #77612D",
"u  c #74602E",
"i  c #7E6830",
"p  c #631675",
"a  c #641776",
"s  c #651D75",
"d  c #72357E",
"f  c #BD5F24",
"g  c #806931",
"h  c #836B32",
"j  c #8C7235",
"k  c #8C7335",
"l  c #8E7436",
"z  c #8E7437",
"x  c #8E7537",
"c  c #8F7537",
"v  c #8D7837",
"b  c #8D7E38",
"n  c #907638",
"m  c #927739",
"M  c #93783A",
"N  c #93793A",
"B  c #957A3B",
"V  c #987E3E",
"C  c #BC6224",
"Z  c #BF6B20",
"A  c #B77B26",
"S  c #B67C26",
"D  c #C3641E",
"F  c #C2651E",
"G  c #C7773D",
"H  c #91756F",
"J  c #6EBF3B",
"K  c #73D521",
"L  c #668B43",
"P  c #778F57",
"I  c #8C8338",
"U  c #8A9F3D",
"Y  c #89A03D",
"T  c #88A83E",
"R  c #88A93E",
"E  c #9EA735",
"W  c #87B13F",
"Q  c #9C8141",
"!  c #9D8242",
"~  c #A18645",
"^  c #A58A49",
"/  c #A78B4A",
"(  c #A98E4C",
")  c #AC904E",
"_  c #AD914E",
"`  c #B79957",
"'  c #B79A56",
"]  c #B89C57",
"[  c #B89C58",
"{  c #B99C58",
"}  c #BA9D59",
"|  c #BB9E5A",
" . c #BB9F5A",
".. c #BDA05C",
"X. c #BEA05C",
"o. c #BEA15C",
"O. c #BFA15C",
"+. c #CF8854",
"@. c #84CA43",
"#. c #84CC43",
"$. c #84CE43",
"%. c #83CA44",
"&. c #8BC940",
"*. c #80C649",
"=. c #87D243",
"-. c #82D046",
";. c #84D144",
":. c #83D745",
">. c #84D744",
",. c #83D845",
"<. c #DECABC",
"1. c #E4C5AF",
"2. c #F3F2F2",
/* pixels */
"                                                                                ",
"                                                                                ",
"                                                                                ",
"                                                                                ",
"                                                                                ",
"                                                                                ",
"                                                                                ",
"                                                                                ",
"                                                                                ",
"                                          . . . . . .                           ",
"                                    . . . . . . = . . . .                       ",
"                                . . . - 4 4 4 4 4 4 4 = . .                     ",
"                            . . . > 4 4 6 H <.G 1.  a a a . .                   ",
"                          . . : 4 4 r D D f D D D >.*.s p   . .                 ",
"                        . . 2 4 8   ,.&.Z A E ,.,.,.,.U ^ o.. .                 ",
"                      . . 4 4 2.K J ,.,.,.,.;.Y I v l l l l u . .               ",
"                    . . 4 6 a d ,.,.:.b l l l n ) [ o.o.' l l . .               ",
"                  . . 4 0 a P ,.,.#.l l N o.o.o.o.o.o.o.o.[ l i .               ",
"                . . 1 4 +.C ,.,.W l Q o.o.o.o.o.o.o.o.o.o.o.l l .               ",
"                . $ 9 D D D =.T l o.o.o.o.o.o.o.o.o.o.o.o.o.B l .               ",
"                . 4 D D :.,.T n o.o.o.o.o.o.o.o.o.o.o.o.o.o.V l . .             ",
"              . . 4 D S ,.W l o.o.o.o.o.o.o.o.o.o.o.o.o.o.o.l l . .             ",
"              . . 4 -.,.@.l o.o.o.o.o.o.o.o.o.o.o.o.o.o.o.o.l l . .             ",
"              . . t ,.#.l [ o.o.o.o.o.o.o.o.o.o.o.o.o.o.o.[ l l . .             ",
"              . . L %.l Q o.o.o.o.o.o.o.o.o.o.o.o.o.o.o.o.l l . .               ",
"              . . < l l o.o.o.o.o.o.o.o.o.o.o.o.o.o.o.o.^ l j . .               ",
"                . ; l [ o.o.o.o.o.o.o.o.o.o.o.o.o.o.o.] l l . .                 ",
"                . & l o.o.o.o.o.o.o.o.o.o.o.o.o.o.o.[ l l . . .                 ",
"                . . g N o.o.o.o.o.o.o.o.o.o.o.o.o.[ l l & . .                   ",
"                  . . w l ' o.o.o.o.o.o.o.o.o.o.~ l l . . .                     ",
"                    . . . . u n ( [ o.o.o.o.) l l l . . .                       ",
"                        . . . . , l l l l l l l j . . .                         ",
"                              . . . . . q g e . . .                             ",
"                                  . . . . . . . .                               ",
"                                                                                ",
"                                                                                ",
"                                                                                ",
"                                                                                ",
"                                                                                ",
"                                                                                "
};
