/* XPM */
static char *_0b30f748c7c470eb8a6c781e6fc04e8[] = {
/* columns rows colors chars-per-pixel */
"40 40 13 1 ",
"  c None",
". c black",
"X c #591E10",
"o c #0C5A00",
"O c #A86732",
"+ c #A86733",
"@ c #A96733",
"# c #FA7A00",
"$ c #EC9B50",
"% c #EA9D50",
"& c #EB9D50",
"* c #743D84",
"= c #FFD2A5",
/* pixels */
"                                        ",
"                                        ",
"                                        ",
"                                        ",
"                                        ",
"                                        ",
"                                        ",
"                                        ",
"                                        ",
"                                        ",
"                  ..........            ",
"                ..==X###X*...           ",
"             ...====#####***...         ",
"            ...====oooooooo**o.         ",
"           ..==##XXXoooooooooo..        ",
"           .==##XXXXXXXXXXXXooo..       ",
"          ..=ooXXXXXXXXXXXXXXXoX.       ",
"          .*oooXXX++++++++XXXXXX.       ",
"         ..##ooXX+++&&&&&+++++XX.       ",
"         .##ooXX++&&&&&&&&&&&+++.       ",
"        ..#ooXX++&&&&$&&&&&&&&++.       ",
"        .#ooXX++&&&&&&&&&&&&&&+.        ",
"        .ooXXX+&&&&&&&&&&&&&&&+.        ",
"        .ooXX++&&&&&&&&&&&&&&++.        ",
"        .ooX++&&&&&&&&&&&$&&&+.         ",
"        .XXX+&&&&&&&&&&&&&&&++.         ",
"        .XX++&&&&&&&&&&&&&&&+..         ",
"        .X++&&&&&&&&&&&&&&&++.          ",
"        .X++&&&&&&&&&&&&&&++..          ",
"        ...+++&&&&&&&&&&+++..           ",
"          ...++&&$&&&&&+++..            ",
"            ..++++&&&&++..              ",
"             ....++++++..               ",
"                ........                ",
"                                        ",
"                                        ",
"                                        ",
"                                        ",
"                                        ",
"                                        "
};
