/* XPM */
static char *_3e11fe3dbba471fd72aa49e6273e496Fzg4T3OXnnPjoiKs[] = {
/* columns rows colors chars-per-pixel */
"40 40 5 1 ",
"  c None",
". c black",
"X c #992512",
"o c #E7B9B2",
"O c #E7BAB2",
/* pixels */
"                                        ",
"                                        ",
"                                        ",
"                                        ",
"                                        ",
"                                        ",
"                                        ",
"                                        ",
"                                        ",
"                                        ",
"          ..............................",
"         ..XXXXXXXXXXXXXXXXXXXXXXXXXXXXX",
"        ..XXXXXXXXXXXXXXXXXXXXXXXXXXXXXX",
"       ..XXXXXXXXXXXXXXXXXXXXXXXXXXXXXXX",
"      ..XXXXXXXXXXXXXXXXXXXXXXXXXXXXXXXX",
"     ..XXXXXXXXXXXXXXXXXXXXXXXXXXXXXXXXX",
"    ..XXXXXXXXXXXX.............XXXXXXXXX",
"   ..XXXXXXXXXXXXX.XXXXX.XXXXX.XXXXXXXXX",
"  ..XXOOOOOOOOOOXX.XOOOO.OOOOX.XOOOOOOOO",
" ..XXOOOOOOOOOOOXX.XOOOO.OOOOX.XOOOOOOOO",
" .XXOOOOOOOOOOOOXX.XOOOO.OOOOX.XOOOOOOOO",
" .XXOOOOOOOOOOOOXX.XOOOO.OOOOX.XOOOOOOOO",
" .XXOOOOOOOOOOOOXX.XOOOO.OOOOX.XOOOOOOOO",
" .XXOOOOOOOOOOOOXX.XOOOO.OOOOX.XOOOOOOOO",
" .XXOOOOOOOOOOOOXX.XOOOO.OOOOX.XOOOOOOOO",
" .XXOOOOOOOOOOOOXX.XOOOO.OOOOX.XOOOOOOOO",
" .XXXXXXXXXXXXXXXX.XXXXX.XXXXX.XXXXXXXXX",
" .XXXXXXXXXXXXXXXX.XXXXX.XXXXX.XXXXXXXXX",
" .XXXXXXXXXXXXXXXX.XXXXX.XXXXX.XXXXXXXXX",
" .XXXXXXXXXXXXXXXX.XXXXX.XXXXX.XXXXXXXXX",
" .XXXXXXXXXXXXXXXX.XXXXX.XXXXX.XXXXXXXXX",
" .XXXXXXXXXXXXXXXX.XXXXX.XXXXX.XXXXXXXXX",
" .XXXXXXXXXXXXXXXX.XXXXX.XXXXX.XXXXXXXXX",
" .XXXXXX.....XXXXX.XXXXX.XXXXX.XX.....XX",
" .......................................",
"        ......                   ...... ",
"                                        ",
"                                        ",
"                                        ",
"                                        "
};
