/* XPM */
static char *c99b28c137b94f29bc5f3307218e3930yOKPT9T5OZ9cZ4sn[] = {
/* columns rows colors chars-per-pixel */
"40 40 4 1 ",
"  c #4E8756",
". c #47AF55",
"X c #47B055",
"o c #56A260",
/* pixels */
"ooooooooooo                             ",
"ooooooooooo                             ",
"ooooooooooooooooo                       ",
"          ooooooooooo      XXX.X        ",
"           ooooooooooX..X.XXXXXX        ",
"        XXXXXooooXXXXXXXXX.XXXXX        ",
"     XXXXXXXXXXXXXXXXXXXXXXXXXXX X      ",
"      XXXXXXXX.XXXXXXXXXXXXXXXXXXXXXXXXX",
"                           XXXXXXXXXXXXX",
"                         ooooXXXXXXXXXXX",
"                         ooooooooooooooo",
"                          oooooooooooooo",
"                              oooooooooo",
"              oo                        ",
"oooooooooooooooooooo                    ",
"ooooooooXXXXXoXXXXXXX                   ",
"        XXXXXXXXXXXXXXXXXXXXXXXXXXX     ",
"             XXXXXXXXXXXXXXXXXXXXXX     ",
"                  XXXXXXXXXXXXXXXXXXXXXX",
"                  XXXXX.XXXXXXXXXXXXXXXX",
"                    oooooooooooooooooooX",
"                       XXooooooooooooooo",
"                     XXXXXX o ooooo    o",
"     XXXXXXXXXXXXXXXXXXXXXX             ",
"XXXX.XXXXXXXXXXXX.XXXXXXX               ",
"XXXXXXXXXXXXXXXXXXXX.XXXX               ",
"XX       oooooooooooooooooooo           ",
"        oooooooooooooooooooooooooooooooo",
"                         oooooXXoXoooooo",
"                           XXXXXXXXooooo",
"                           XXXXXXXXXXXXX",
"                 XXXXXXXXXXXXXXXXXXXXXXX",
"                 XXXXXXXXXXXXXXXXX XXXXX",
" oo ooooooooooooooooXoXXXXXXXXXXXX      ",
"oooooooooooooooooooooooo    XXXXX       ",
"oooooooooXXoXXXXXXooooooo               ",
"      XXXXXXXXXXXXXXXXXXXo              ",
"         XXXXXXXXXXXXXXXX      oooooo   ",
"                      XXXXXXoooooooooooo",
"                      XXXXXXXooooooooooo"
};
