/* XPM */
static char *_d301a2a05ab4c4ae91ebdc4c2f245c8KBIterOxo3uOZMxV[] = {
/* columns rows colors chars-per-pixel */
"40 40 99 2 ",
"   c None",
".  c black",
"X  c #000100",
"o  c #010101",
"O  c #020101",
"+  c #020201",
"@  c #060202",
"#  c #070202",
"$  c #050603",
"%  c #070805",
"&  c #0B0905",
"*  c #0E110B",
"=  c #0F130B",
"-  c #1C170D",
";  c #1F190E",
":  c #2A0C11",
">  c #300D13",
",  c #360F16",
"<  c #261E11",
"1  c #271F12",
"2  c #1D2316",
"3  c #2B3119",
"4  c #333E26",
"5  c #47141C",
"6  c #4D161F",
"7  c #5D4B2A",
"8  c #5E4C2B",
"9  c #5F4D2B",
"0  c #4A5936",
"q  c #55673E",
"w  c #607743",
"e  c #872635",
"r  c #8A2837",
"t  c #8F2B38",
"y  c #902839",
"u  c #912839",
"i  c #922939",
"p  c #91293A",
"a  c #92293A",
"s  c #93293A",
"d  c #922A3A",
"f  c #922A3B",
"g  c #932B3C",
"h  c #833032",
"j  c #846B3C",
"k  c #993545",
"l  c #9A3848",
"z  c #9B3B4A",
"x  c #9D3C4C",
"c  c #904842",
"v  c #914F45",
"b  c #9E404F",
"n  c #9F404F",
"m  c #905846",
"M  c #7B935A",
"N  c #8D8E54",
"B  c #B48F4B",
"V  c #B58F4B",
"C  c #B5904B",
"Z  c #B6904C",
"A  c #B6914C",
"S  c #B18F50",
"D  c #B49252",
"F  c #B69353",
"G  c #8AAD5B",
"H  c #8DAF5F",
"J  c #8BB05D",
"K  c #8BB05E",
"L  c #8DB15F",
"P  c #85A062",
"I  c #8BA867",
"U  c #8FB463",
"Y  c #91B564",
"T  c #93B768",
"R  c #99BB6F",
"E  c #9ABC6F",
"W  c #9ABC70",
"Q  c #9ABC71",
"!  c #9DBD74",
"~  c #9EBE75",
"^  c #9EBF75",
"/  c #B2BA6F",
"(  c #B3BA6F",
")  c #A6BD73",
"_  c #CDA45A",
"`  c #CBA45C",
"'  c #D5AD60",
"]  c #D7AD61",
"[  c #D8AE61",
"{  c #D8AE62",
"}  c #D8AF62",
"|  c #D9AF62",
" . c #DAAF63",
".. c #DBAF63",
"X. c #CDB367",
"o. c #CBB468",
"O. c #D4B265",
"+. c #D9B063",
"@. c #DAB063",
/* pixels */
"                                                                                ",
"                              . . . . . . . . .                                 ",
"                            . . . # r a a e : . . .                             ",
"                          . .   a a a a a a a a , . .                           ",
"                        . .   a a a a a a a a a a 5 . .                         ",
"                        .   a a a a a a a a a a a a # .                         ",
"                        .   a a n x a a a a a a a a a .                         ",
"                        .   a a n n a a a a a a a a a . .                       ",
"                        . a a l n n a a a a a a a a a . .                       ",
"                        . a a g n n l a a a a a a a 6 .                         ",
"                        . > a a n n n n a a a a a a . .                         ",
"                        . . a a a n n n n l a a a . .                           ",
"                        . 4 M a a a k n n a a a h 3 . .                         ",
"                        . ^ ^ v a a a a a a a t G L ^ 2 .                       ",
"                      . % ^ ^ ^ H m a a a c N J J J ^ ^ . .                     ",
"                      . q ^ ^ ^ J J J J J J J J J J E ^ . .                     ",
"                      . 0 ^ ^ ^ Q J J J J J J J J J L ^ = .                     ",
"                      . = ^ ^ ^ ^ R J J J J J J J J w ^ .                       ",
"                      . . ^ I ^ ^ ^ Q J J J J J J J ^ ^ .                       ",
"                        . P ^ ^ ^ ^ ^ ^ Y J L T U ^ ^ $ .                       ",
"                        . . ^ ^ ^ ^ ^ ^ ^ ^ ^ ^ ^ ^ X.. .                       ",
"                          . . ) ^ ^ ^ ^ ^ ^ ^ ^ ^ o.@..                         ",
"                          . . ..@.( ^ ^ ^ ^ ^ ( @.@.8 .                         ",
"                            . 8 @...@.@.O.@.@._ B ... .                         ",
"                            . . @.@.@.@.@.@.@.B B D .                           ",
"                            . . ` @.@.@.@.@.@.B C . .                           ",
"                              . - @.@.@...@.A B ... .                           ",
"                              . . @.@.@.@...B B & .                             ",
"                                . j @.@.@.A B ] . .                             ",
"                                . . @.@...B B ; .                               ",
"                                  . D @.C B ] . .                               ",
"                                  . . @.B A 7 .                                 ",
"                                  . . ....@.. .                                 ",
"                                    . 1 ..S .                                   ",
"                                    . . @.. .                                   ",
"                                      . 1 . .                                   ",
"                                      . . .                                     ",
"                                        .                                       ",
"                                                                                ",
"                                                                                "
};
