/* XPM */
static char *_8b80ef78d804fb8a30ba82d89d1ca88[] = {
/* columns rows colors chars-per-pixel */
"40 40 10 1 ",
"  c None",
". c black",
"X c #760020",
"o c #950029",
"O c #960029",
"+ c #A86733",
"@ c #ACAA00",
"# c #AEAA00",
"$ c #C3BF00",
"% c #EB9D50",
/* pixels */
"                                        ",
"                                        ",
"                                        ",
"                                        ",
"                                        ",
"                                        ",
"                                        ",
"                 .....                  ",
"                ..ooo..                 ",
"               ..ooooo..                ",
"              ..ooooooo..               ",
"              .ooXoooXoo.               ",
"              .oXXXXXXXo.               ",
"              .ooXXXXXoo.               ",
"              ..oooXooo..               ",
"              ..@@ooo@@..               ",
"             ..@@@@@@@@@..              ",
"             .@@$@@@@@$@@.              ",
"             .@$$@@@@@$$@.              ",
"             .@$$$$$$$$$@.              ",
"             .@@@@@@@@@@@.              ",
"             ..+++@@@+++.               ",
"              .+%+++++%+.               ",
"              .+%%%%%%%+.               ",
"              .++%%%%%++.               ",
"              ..+%%%%%+..               ",
"               .+%%%%%+.                ",
"               .++%%%++.                ",
"               ..+%%%+..                ",
"                .+%%%+.                 ",
"                .++%++.                 ",
"                ..+%+..                 ",
"                 .+++.                  ",
"                 ..+..                  ",
"                  .+.                   ",
"                  ...                   ",
"                                        ",
"                                        ",
"                                        ",
"                                        "
};
