/* XPM */
static char *result[] = {
/* columns rows colors chars-per-pixel */
"40 40 5 1 ",
"  c black",
". c #43260F",
"X c #995F12",
"o c white",
"O c None",
/* pixels */
"OOOOOOOOOOOOOOOOOOOOOOOOOOOOOOOOOOOOOOOO",
"OOOOOOOOOOOOOOOOOOOOOOOOOOOOOOOOOOOOOOOO",
"OOOOOOOOOOOOOOOOOOOOOOOOOOOOOOOOOOOOOOOO",
"OOOOOOOOOOOOOOOOOOOOOOOOOOOOOOOOOOOOOOOO",
"OOOOOOOOOOOOO              OOOOOOOOOOOOO",
"OOOOOOOOOOOO  .....oo.....  OOOOOOOOOOOO",
"OOOOOOOOOOO  ......oo......  OOOOOOOOOOO",
"OOOOOOOOOO  .......oo.......  OOOOOOOOOO",
"OOOOOOOOO  ........oo........  OOOOOOOOO",
"OOOOOOOO  .........oo.........  OOOOOOOO",
"OOOOOOO  .......o .oo.o .......  OOOOOOO",
"OOOOOOO ....X...oo.oo.oo...X.... OOOOOOO",
"OOOOOOO  ..X.......oo.......X..  OOOOOOO",
"OOOOOOOO .X.....XooooooX.....X. OOOOOOOO",
"OOOOOOOO .....XXXooooooXXX..... OOOOOOOO",
"OOOOOOOO  ...XXXooooooooXXX...  OOOOOOOO",
"OOOOOOOOO  ..XXoooo..ooooXX..  OOOOOOOOO",
"OOOOOOOOOO  .XXXooo..oooXXX.  OOOOOOOOOO",
"OOOOOOOOOOO .XXXooooooooXXX. OOOOOOOOOOO",
"OOOOOOOOOOOO ....oooooo.... OOOOOOOOOOOO",
"OOOOOOOOOOOO oooo..oo..oooo OOOOOOOOOOOO",
"OOOOOOOOOOOO oooooooooooooo OOOOOOOOOOOO",
"OOOOOOOOOOOO .oooooooooooo. OOOOOOOOOOOO",
"OOOOOOOOOOO  ..oooooooooo..  OOOOOOOOOOO",
"OOOOOOOOOOO ...oooooooooo... OOOOOOOOOOO",
"OOOOOOOOOO  ..oooooooooo....  OOOOOOOOOO",
"OOOOOOOOOO ..oooooooooo...... OOOOOOOOOO",
"OOOOOOOOOO .oooooooooo....... OOOOOOOOOO",
"OOOOOOOOOO ooooooooooooo..... OOOOOOOOOO",
"OOOOOOOOOO oooooo      oo.... OOOOOOOOOO",
"OOOOOOOOOO ooooo  OOOO  o.... OOOOOOOOOO",
"OOOOOOOOOO ooooo OOOOOO o.... OOOOOOOOOO",
"OOOOOOOOOO ooooo OOOOOO ooooo OOOOOOOOOO",
"OOOOOOOOOO ooooo OOOOOO ooooo OOOOOOOOOO",
"OOOOOOOOOO ooooo OOOOOO ooooo OOOOOOOOOO",
"OOOOOOOOOO ooooo OOOOOO ooooo OOOOOOOOOO",
"OOOOOOOOOO ooooo OOOOOO ooooo OOOOOOOOOO",
"OOOOOOOOOO  ooo  OOOOOO  ooo  OOOOOOOOOO",
"OOOOOOOOOOO     OOOOOOOO     OOOOOOOOOOO",
"OOOOOOOOOOOOOOOOOOOOOOOOOOOOOOOOOOOOOOOO"
};
