/* XPM */
static char *_79c4d7523184a8fd712968077360cfc9HQDWIQBEeHapC23[] = {
/* columns rows colors chars-per-pixel */
"40 40 101 2 ",
"   c None",
".  c black",
"X  c #3D230E",
"o  c #43260E",
"O  c #42260F",
"+  c #43260F",
"@  c #42270F",
"#  c #43270F",
"$  c #44260F",
"%  c #44270F",
"&  c #44280F",
"*  c #46280F",
"=  c #492A0F",
"-  c #4B2C0F",
";  c #4C2C0F",
":  c #4E2D0F",
">  c #4F2E0F",
",  c #422610",
"<  c #432610",
"1  c #432710",
"2  c #442710",
"3  c #442810",
"4  c #452910",
"5  c #452811",
"6  c #452812",
"7  c #452912",
"8  c #472B14",
"9  c #4A2B10",
"0  c #4D321C",
"q  c #4F351F",
"w  c #553210",
"e  c #673F10",
"r  c #513621",
"t  c #553A26",
"y  c #563C27",
"u  c #563D28",
"i  c #6E4411",
"p  c #5A412D",
"a  c #5D4430",
"s  c #5E4531",
"d  c #664E3B",
"f  c #766150",
"g  c #804E11",
"h  c #845211",
"j  c #855211",
"k  c #8C5612",
"l  c #8F5812",
"z  c #935A12",
"x  c #945C12",
"c  c #955D12",
"v  c #985E12",
"b  c #995F12",
"n  c #915D19",
"m  c #8A786A",
"M  c #938275",
"N  c #B99C76",
"B  c #A19286",
"V  c #A09386",
"C  c #AA9E94",
"Z  c #B4A89F",
"A  c #D3BA99",
"S  c #C2B9B1",
"D  c #C4BAB3",
"F  c #C6BEB7",
"G  c #C9C0BA",
"H  c #CBC3BD",
"J  c #CEC6C0",
"K  c #D1CAC4",
"L  c #DBD5D1",
"P  c #DED9D5",
"I  c #DFDAD6",
"U  c #E0DCD8",
"Y  c #E5E1DE",
"T  c #E7E7E7",
"R  c #E9E7E3",
"E  c #EAE6E5",
"W  c #EBE8E6",
"Q  c #ECE9E6",
"!  c #EDEAE8",
"~  c #EDEBE9",
"^  c #F0EEEC",
"/  c #F1EEED",
"(  c #F1EFED",
")  c #F6F1EA",
"_  c #F5F3F2",
"`  c #F6F4F3",
"'  c #F4F4F4",
"]  c #F6F5F4",
"[  c #F7F5F4",
"{  c #F9F6F2",
"}  c #F8F7F6",
"|  c #FBF9F8",
" . c #FAFAF9",
".. c #FCFBFB",
"X. c #FCFCFB",
"o. c #FDFDFD",
"O. c #FEFDFD",
"+. c #FEFEFC",
"@. c #FEFEFE",
"#. c #FFFFFE",
"$. c white",
/* pixels */
"                                                                                ",
"                                                                                ",
"                                                                                ",
"                                                                                ",
"                                                                                ",
"                                                                                ",
"                                                                                ",
"                                                                                ",
"                                                                                ",
"                              1 + + + $.$.4 + + +                               ",
"                          + + + + + + $.$.+ + + + + +                           ",
"                        + + + + + + + $.$.+ + + + + + + +                       ",
"                      + + + + + + + + $.$.+ + + + + + 1 + + +                   ",
"                    + + + + + + + + + $.$.+ + + + + + - + 1 + 1                 ",
"                  + + + + j + $.$.+ + $.$.+ + + ' $.+ x + + + +                 ",
"                + + 4 + + i X . T 2 + $.$.+ + + . $.+ l ; + + +                 ",
"                + + 4 4 + z + + + + 8 $.$.y + 1 + + + b ; + + +                 ",
"                  + + 9 b b ; + ; $ $.$.$.$.$.+ & $ + b x + + +       !         ",
"                    1 + e + = x b $.$.$.$.$.$.$.b j & $ + + + +       | L       ",
"                      1 + 4 b b $.$.$.$.$.$.$.$.) b b + + + +       _ S $.      ",
"                        + + b b A $.$.m 2 ' $.$.$.b b + + +         Y f +       ",
"                          + ; j { $.$.+ + ^ $.$.E b ; + 1         + + + +       ",
"                              + + $.$...$.$.$.4 + ; +             + + + +       ",
"                              B s + Q $.$.$.+ s W U +           + + + + +       ",
"                            + B $.D + d C + M ' $.F +       + + + + + +         ",
"                          + + + $.$.G 0 + p ` $.$.+ + +   + + + + + + +         ",
"                          + + t $.$.$.$.$.$.$.$.+ + + + + + + + + + +           ",
"                          + + + P $.$.$.$.$.$.4 + + + + + + + + + +             ",
"                        + + 1 + + ^ $.$.$.$.P + + + + + + + + + +               ",
"                        + + + ..} + $.$.$.$.+ + + + + + + $                     ",
"                        + + + $.$.J + ^ $.+ + + + + + + +                       ",
"                        + + + $.$.$.+ $.$.+ + k b g + + +                       ",
"                          + + $.$.$.+ Z m + + ; N b + + +                       ",
"                          + + X.$.$.+ + + + + + $.$.n b +                       ",
"                          + u $.$.$.r + + +   + $.$.| w                         ",
"                        q $.$.$.$.$.R         H $.$.$.f +                       ",
"                        } $.$.$.$.$.$.        $.$.$.$.$.+                       ",
"                          $.$.$.$.$.$.        $.$.$.$.! +                       ",
"                            $.$.$.$.          ' $.$.K                           ",
"                                                                                "
};
