/* XPM */
static char *result[] = {
/* columns rows colors chars-per-pixel */
"40 40 14 1 ",
"  c black",
". c #362721",
"X c #362722",
"o c #4B3831",
"O c #00513F",
"+ c #232054",
"@ c #191386",
"# c #191388",
"$ c #75B3BE",
"% c #8ACEDB",
"& c #D0DEDA",
"* c #F2D2C4",
"= c gray99",
"- c None",
/* pixels */
"----------------------------------------",
"-------------               ------------",
"------------  ooooooooooooo ------------",
"-----------  oo.X..Xo$$$$oo  -----------",
"----------  oo....oo$$$$$$$$    --------",
"---------- o.....oo$$$$$%%%$$$$ --------",
"---------- o....o$$$$$$%%%%%%%$  -------",
"---------- o...o$$$$$%%%%%%%%%$$ -------",
"---------  o...o$$$$$%%%%%%%%$$$ -------",
"--------- oo.Xooooo$$%%%%%%%%$   -------",
"--------- oX.o*****$$$$$$$$$%$ ---------",
"--------- o.o**   ****   **$$$ ---------",
"--------- ooo* *o* ** *o* ***$ ---------",
"---------  *** ***    *** **** ---------",
"---------- ****   ****   ***** ---------",
"----------  *****************  ---------",
"-----------  ***************  ----------",
"------------ *************** -----------",
"------------   ***********   -----------",
"-------------  OOOOO OOOOO  ------------",
"------------  &&&OOO OOO&&&  -----------",
"------------ &&&&&OO OO&&&&& -----------",
"-----------  &&&&&&O O&&&&&&   ---------",
"----------- OO&&&&&& &&&&&&OOO ---------",
"----------- OOO&&&&& &&&&&OOOO ---------",
"---------- OOOOO&&&& &&&&OOOOOO --------",
"---------- OOOOOO&&& &&&OOOOOOO --------",
"---------- OOOOOOO&& &&OOOOOOOO --------",
"---------- OOOOOOOO& &OOOOOOOOO --------",
"---------- ***OOOOOO O      *** --------",
"---------- ** OOOOOO   ====  ** --------",
"----------    @@@@@@@ ======    --------",
"------------- @@@@@@@ ====== -----------",
"------------- @@@@@#@ ====== -----------",
"------------- #@@@@@@ ====== -----------",
"------------- ==+===  ====== -----------",
"------------- ===+==   ====  -----------",
"-------------  ====          -----------",
"--------------      --------------------",
"----------------------------------------"
};
