/* XPM */
static char *_009c0bea8214b4293a6feb1748b7eda3kSPI5HKhiheSvK9[] = {
/* columns rows colors chars-per-pixel */
"40 40 109 2 ",
"   c None",
".  c black",
"X  c #050404",
"o  c #141211",
"O  c #171514",
"+  c #193A2F",
"@  c #2A2623",
"#  c #421C1C",
"$  c #431D1D",
"%  c #421E1E",
"&  c #431E1E",
"*  c #431E1F",
"=  c #441F1F",
"-  c #451F1F",
";  c #452020",
":  c #462020",
">  c #4A2020",
",  c #4B2121",
"<  c #41332C",
"1  c #532D33",
"2  c #543232",
"3  c #543333",
"4  c #553333",
"5  c #563535",
"6  c #5B3737",
"7  c #1E1A61",
"8  c #1F1B62",
"9  c #191579",
"0  c #181979",
"q  c #272367",
"w  c #332F6F",
"e  c #332F70",
"r  c #363272",
"t  c #373373",
"y  c #5C3A42",
"u  c #304F44",
"i  c #235645",
"p  c #205746",
"a  c #265445",
"s  c #215847",
"d  c #215947",
"f  c #205948",
"g  c #215948",
"h  c #235948",
"j  c #215A48",
"k  c #366858",
"l  c #5E5059",
"z  c #42407A",
"x  c #407161",
"c  c #4E7C6D",
"v  c #171380",
"b  c #2D2A8C",
"n  c #413E8D",
"m  c #49469C",
"M  c #7775A0",
"N  c #9F79B2",
"B  c #A774AC",
"V  c #AC77AE",
"C  c #A57FBC",
"Z  c #AA7FBC",
"A  c #AE7FBC",
"S  c #B87FBC",
"D  c #6D858A",
"F  c #6E898E",
"G  c #719497",
"H  c #7AAAB0",
"J  c #7FB6BC",
"K  c #7FB7BC",
"L  c #7FB8BC",
"P  c #AF9588",
"I  c #9A90BC",
"U  c #939CBC",
"Y  c #B780BA",
"T  c #B981BC",
"R  c #9DB6AE",
"E  c #87AABB",
"W  c #8AA8BC",
"Q  c #8AA9BD",
"!  c #83B0BC",
"~  c #83B2BC",
"^  c #80B6BC",
"/  c #80B7BC",
"(  c #A3B9B2",
")  c #CBAFA1",
"_  c #CBB0A1",
"`  c #CCB1A2",
"'  c #CEB2A3",
"]  c #B4B2CB",
"[  c #BECEC9",
"{  c #C2D1CC",
"}  c #CEDBD6",
"|  c #D0DCD8",
" . c #D3DEDA",
".. c #EAD2C2",
"X. c #EAD2C3",
"o. c #E9D1C4",
"O. c #ECD2C6",
"+. c #ECD4C5",
"@. c #EDD4C6",
"#. c #ECD5C6",
"$. c #EDD5C6",
"%. c #EFD3C8",
"&. c #EFD5C8",
"*. c #EDDAC9",
"=. c #F7DFD0",
"-. c #FBE3D3",
";. c #FFE5D5",
":. c #E9E8EF",
">. c white",
/* pixels */
"                                                                                ",
"                                & & & & & : - & & & & &                         ",
"                              & & & & y 2 2 5 & & & & & &                       ",
"                              & D K & & & & & & & & & & & &                     ",
"                            & K K G & & & & , & & & & & & & &                   ",
"                        & l K ^ F & & & & , , & & & & 2 & & &                   ",
"                      E K K ^ ^ ^ & & & & & - & & & & & & & &                   ",
"                    K K ~ K W L L H & & & & & & & & & & & & &                   ",
"                          L L W I C N & & & & & & & 1 & & & &                   ",
"                          ~ U C C C C V & & & & & & & & & & & &                 ",
"                            T Z A S S B Y & & & & & & & & & & &                 ",
"                            @.@.@.@ o . @.@.@.` ` ) & & & & & &                 ",
"                            @.@.O @.< @.. @.@.P ` ` & & & & & &                 ",
"                            @.@.. @.@.@.. . X . ` ` & & & & &                   ",
"                            &.@.@.. . . @.@.@.` ` _ & & & & &                   ",
"                              @.@.@.@.@.@.@.@.@...@.& & & :                     ",
"                              @.@.@.@.@.@.@.@.@.@.@.& & & 6                     ",
"                                O.@.@.@.@.@.@.@.@.@.& & &                       ",
"                                  %.@.@.@.@.@.@.@.@...o.                        ",
"                                  s g g g ( c s g g g                           ",
"                                  g g x  . . . .R g g                           ",
"                                  g [  . . . . . . .g                           ",
"                                  }  . .+ + + u  . . .                          ",
"                                   . . .+ + + +  . . .                          ",
"                                   . .{ + + + + k  . .                          ",
"                                  g g a + + + + p g g                           ",
"                                  g g p + + + + g g g                           ",
"                                  g g g -.;.=.g g g g                           ",
"                                  g g g *.;.;.g g g g                           ",
"                                  g g g g ;.;.g g g g                           ",
"                                  g g g g g g g g g g                           ",
"                                  v v v 0 v v v 9 7 7                           ",
"                                  b m n 7 z e t w t q                           ",
"                                  >.7 7 7 >.>.>.>.                              ",
"                                  >.M ] :.>.>.>.>.                              ",
"                                  >.>.>.>.>.>.>.                                ",
"                                                                                ",
"                                                                                ",
"                                                                                ",
"                                                                                "
};
