/* XPM */
static char *_9464c47331d49a1a9ba19e449c990c7E4Z8j1U2ax33nTiL[] = {
/* columns rows colors chars-per-pixel */
"40 40 113 2 ",
"   c None",
".  c black",
"X  c #050404",
"o  c #141211",
"O  c #171514",
"+  c #193A2F",
"@  c #2A2623",
"#  c #421C1C",
"$  c #431D1D",
"%  c #421E1E",
"&  c #431E1E",
"*  c #431E1F",
"=  c #441F1F",
"-  c #451F1F",
";  c #452020",
":  c #462020",
">  c #442424",
",  c #462727",
"<  c #4A2020",
"1  c #4B2121",
"2  c #41332C",
"3  c #532D33",
"4  c #543232",
"5  c #543333",
"6  c #553333",
"7  c #563535",
"8  c #5B3737",
"9  c #1E1A61",
"0  c #1F1B62",
"q  c #191579",
"w  c #181979",
"e  c #272367",
"r  c #332F6F",
"t  c #332F70",
"y  c #363272",
"u  c #373373",
"i  c #5C3A42",
"p  c #304F44",
"a  c #235645",
"s  c #205746",
"d  c #265445",
"f  c #215847",
"g  c #215947",
"h  c #205948",
"j  c #215948",
"k  c #235948",
"l  c #215A48",
"z  c #366858",
"x  c #484848",
"c  c #42407A",
"v  c #5F6769",
"b  c #407161",
"n  c #4E7C6D",
"m  c #171380",
"M  c #2D2A8C",
"N  c #413E8D",
"B  c #49469C",
"V  c #7775A0",
"C  c #9F79B2",
"Z  c #A774AC",
"A  c #AC77AE",
"S  c #A57FBC",
"D  c #AA7FBC",
"F  c #AE7FBC",
"G  c #B87FBC",
"H  c #76A1A5",
"J  c #7AAAB0",
"K  c #7BAEB3",
"L  c #7FB7BC",
"P  c #7FB8BC",
"I  c #AF9588",
"U  c #AF998D",
"Y  c #8F9FBB",
"T  c #9A90BC",
"R  c #939CBC",
"E  c #B780BA",
"W  c #B981BC",
"Q  c #9DB6AE",
"!  c #87AABB",
"~  c #84AFBC",
"^  c #8AA8BC",
"/  c #88AABC",
"(  c #80B5BB",
")  c #83B1BC",
"_  c #83B2BC",
"`  c #80B7BC",
"'  c #A3B9B2",
"]  c #C1A89A",
"[  c #CBAFA1",
"{  c #CBB0A1",
"}  c #CCB1A2",
"|  c #D7C1B3",
" . c #B4B2CB",
".. c #BECEC9",
"X. c #C2D1CC",
"o. c #CEDBD6",
"O. c #D0DCD8",
"+. c #D3DEDA",
"@. c #EAD2C3",
"#. c #E9D1C4",
"$. c #ECD2C6",
"%. c #ECD4C5",
"&. c #EDD4C6",
"*. c #ECD5C6",
"=. c #EDD5C6",
"-. c #EFD3C8",
";. c #EFD5C8",
":. c #EDDAC9",
">. c #F7DFD0",
",. c #FBE3D3",
"<. c #FFE5D5",
"1. c #E9E8EF",
"2. c white",
/* pixels */
"                                                                                ",
"                            & & & & & = ; & & & & &                             ",
"                          & & & & & & 7 5 5 i & & & &                           ",
"                        & & & & & & & & & & & & ( L >                           ",
"                      & & & & & & & & 1 & & & & H K L v                         ",
"                      & & & 5 & & & & 1 1 & & & L L L L L >                     ",
"                      & & & & & & & & = & & & & & ` Y L ) L !                   ",
"                      & & & & & & & & & & & & & J P P / L ~ L                   ",
"                      & & & & 3 & & & & & & & C S T / P P                       ",
"                    & & & & & & & & & & & & A S S S S R )                       ",
"                    & & & & & & & & & & & E Z G G F D W                         ",
"                    & & & & & & [ } } =.=.=.. o @ =.=.=.                        ",
"                    & & & & & & } } I =.=.. =.2 =.O =.=.                        ",
"                      & & & & & } ] . X . . =.=.=.. =.=.                        ",
"                      & & & & & { x U =.=.=.. . . =.=.;.                        ",
"                        ; & & & =.| =.=.=.=.=.=.=.=.=.                          ",
"                        8 & & & =.=.=.=.=.=.=.=.=.=.=.                          ",
"                          & & & =.=.=.=.=.=.=.=.=.$.                            ",
"                            #.@.=.=.=.=.=.=.=.=.-.                              ",
"                              j j j g n ' j j j g                               ",
"                              j j Q +.+.+.+.b j j                               ",
"                              j +.+.+.+.+.+.+...j                               ",
"                              +.+.+.p + + + +.+.o.                              ",
"                              +.+.+.+ + + + +.+.+.                              ",
"                              +.+.z + + + + X.+.+.                              ",
"                              j j a + + + + d j j                               ",
"                              j j j + + + + a j j                               ",
"                              j j j j >.<.,.j j j                               ",
"                              j j j j <.<.:.j j j                               ",
"                              j j j j <.<.j j j j                               ",
"                              j j j j j j j j j j                               ",
"                              9 9 q m m m w m m m                               ",
"                              e y r y t c 9 N B M                               ",
"                                  2.2.2.2.9 9 9 2.                              ",
"                                  2.2.2.2.1. .V 2.                              ",
"                                    2.2.2.2.2.2.2.                              ",
"                                                                                ",
"                                                                                ",
"                                                                                ",
"                                                                                "
};
