/* XPM */
static char *fb0dec03ffb84b93ec31b2d8bd67373aoPmtIsaSQLzaMXmn[] = {
/* columns rows colors chars-per-pixel */
"40 40 11 1 ",
"  c None",
". c black",
"X c #362721",
"o c #362722",
"O c #4B3831",
"+ c #00513F",
"@ c #191386",
"# c #191388",
"$ c #D0DEDA",
"% c #F2D2C4",
"& c gray99",
/* pixels */
"                                        ",
"              ...............           ",
"              .OOOOOOOOOOOOO..          ",
"             ..OOXXXXXXXXXXOO..         ",
"          ....XOXXXXXXXXXXXXOO..        ",
"          .XOOOXXXXXXXXXXXXXXXO.        ",
"         ..OXXXXXXXXXXXXXXXXXXO.        ",
"         .OOXXXXXXXXXXXXXXXXXXO.        ",
"         .OOOXXXXXXXXXXXXXXXXXO..       ",
"         ...OXXXXXXXXXXXXXXXXXOO.       ",
"           .OXXXXXXXXXXXXXXXXXXO.       ",
"           .OXXXXXXXXXXXXXXXXXXO.       ",
"           .OXXXXXXXXXXXXXOXXXOO.       ",
"           .OXXXXXXXXXXXXOOXXXO..       ",
"           .OOXXXXXXXXOOOXXXXOO.        ",
"           ..OOXXXXXXXXXXXXXOO..        ",
"            ..OXXXXXXXXXXXXXO..         ",
"             .OOOOOOOOOOOOOOO.          ",
"             ...OOOOOOOOOOO...          ",
"              ..+++++++++++..           ",
"             ..$$$+++++++$$$..          ",
"             .$$$$$+++++$$$$$.          ",
"           ...$$$$$$+++$$$$$$..         ",
"           .+++$$$$$$$$$$$$$++.         ",
"           .++++$$$$$$$$$$$+++.         ",
"          .++++++$$$$$$$$$+++++.        ",
"          .+++++++$$$$$$$++++++.        ",
"          .++++++++$$$$$+++++++.        ",
"          .+++++++++$$$++++++++.        ",
"          .%%%++++++++++++++%%%.        ",
"          .%%........+++++++.%%.        ",
"          ....&&&&&&.@@@@@@@....        ",
"             .&&&&&&.@@@@@@@.           ",
"             .&&&&&&.@#@@@@@.           ",
"             .&&&&&&.@@@@@@#.           ",
"             .&&&&&&..&&&&&&.           ",
"             .&&&&&&...&&&&..           ",
"             ..&&&&.. ......            ",
"              ......                    ",
"                                        "
};
