/* XPM */
static char *fc8bd3927cf84162a5467dc9b9093d35X59wGbxjS6jMOMeo[] = {
/* columns rows colors chars-per-pixel */
"40 40 11 1 ",
"  c None",
". c black",
"X c #362721",
"o c #362722",
"O c #4B3831",
"+ c #00513F",
"@ c #191386",
"# c #191388",
"$ c #D0DEDA",
"% c #F2D2C4",
"& c gray99",
/* pixels */
"                                        ",
"             ...............            ",
"            ..OOOOOOOOOOOOO.            ",
"           ..OOooooooooooOO..           ",
"          ..OOooooooooooooOo....        ",
"          .OoooooooooooooooOOOo.        ",
"          .OooooooooooooooooooO..       ",
"          .OooooooooooooooooooOO.       ",
"         ..OoooooooooooooooooOOO.       ",
"         .OOoooooooooooooooooO...       ",
"         .OooooooooooooooooooO.         ",
"         .OooooooooooooooooooO.         ",
"         .OOoooOoooooooooooooO.         ",
"         ..OoooOOooooooooooooO.         ",
"          .OOooooOOOooooooooOO.         ",
"          ..OOoooooooooooooOO..         ",
"           ..OoooooooooooooO..          ",
"            .OOOOOOOOOOOOOOO.           ",
"            ...OOOOOOOOOOO...           ",
"             ..+++++++++++..            ",
"            ..$$$+++++++$$$..           ",
"            .$$$$$+++++$$$$$.           ",
"           ..$$$$$$+++$$$$$$...         ",
"           .++$$$$$$$$$$$$$+++.         ",
"           .+++$$$$$$$$$$$++++.         ",
"          .+++++$$$$$$$$$++++++.        ",
"          .++++++$$$$$$$+++++++.        ",
"          .+++++++$$$$$++++++++.        ",
"          .++++++++$$$+++++++++.        ",
"          .%%%++++++++++++++%%%.        ",
"          .%%.+++++++........%%.        ",
"          ....@@@@@@@.&&&&&&....        ",
"             .@@@@@@@.&&&&&&.           ",
"             .@@@@@#@.&&&&&&.           ",
"             .#@@@@@@.&&&&&&.           ",
"             .&&&&&&..&&&&&&.           ",
"             ..&&&&...&&&&&&.           ",
"              ...... ..&&&&..           ",
"                      ......            ",
"                                        "
};
