/* XPM */
static char *_68f72669820449f8fc044ac285e3406[] = {
/* columns rows colors chars-per-pixel */
"40 40 14 1 ",
"  c None",
". c black",
"X c #362721",
"o c #362722",
"O c #4B3831",
"+ c #00513F",
"@ c #232054",
"# c #191386",
"$ c #191388",
"% c #75B3BE",
"& c #8ACEDB",
"* c #D0DEDA",
"= c #F2D2C4",
"- c gray99",
/* pixels */
"                                        ",
"             ...............            ",
"            ..OOOOOOOOOOOOO.            ",
"           ..OOoooooO%%%%OO..           ",
"          ..OOooooOO%%%%%%%%....        ",
"          .OoooooOO%%%%%&&&%%%%.        ",
"          .OooooO%%%%%%&&&&&&&%..       ",
"          .OoooO%%%%%&&&&&&&&&%%.       ",
"         ..OoooO%%%%%&&&&&&&&%%%.       ",
"         .OOooOOOOO%%&&&&&&&&%...       ",
"         .OooO=====%%%%%%%%%&%.         ",
"         .OoO==...====...==%%%.         ",
"         .OOO=.=O=.==.=O=.===%.         ",
"         ..===.===....===.====.         ",
"          .====...====...=====.         ",
"          ..=================..         ",
"           ..===============..          ",
"            .===============.           ",
"            ...===========...           ",
"             ..+++++.+++++..            ",
"            ..***+++.+++***..           ",
"            .*****++.++*****.           ",
"           ..******+.+******...         ",
"           .++******.******+++.         ",
"           .+++*****.*****++++.         ",
"          .+++++****.****++++++.        ",
"          .++++++***.***+++++++.        ",
"          .+++++++**.**++++++++.        ",
"          .++++++++*.*+++++++++.        ",
"          .===++++++.+++++++===.        ",
"          .==.++++++.+++++++.==.        ",
"          ....##############....        ",
"             .##############.           ",
"             .#####$########.           ",
"             .$#############.           ",
"             .--@---..---@--.           ",
"             .---@--..--@---.           ",
"             ..----....----..           ",
"              ......  ......            ",
"                                        "
};
