/* XPM */
static char *_8ce1e9bc2be47c7836781cbb05043ffk3VQBQ4isTlov0WI[] = {
/* columns rows colors chars-per-pixel */
"40 40 14 1 ",
"  c None",
". c black",
"X c #193A2F",
"o c #483932",
"O c #222051",
"+ c #1E5040",
"@ c #181381",
"# c #83B1BC",
"$ c #D7B09D",
"% c #D7B19D",
"& c #D3DEDA",
"* c #ECD2C5",
"= c #EDD3C6",
"- c gray99",
/* pixels */
"                                        ",
"             ...............            ",
"            ..ooooooooooooo.            ",
"           ..oooooooooooooo..           ",
"          ..oooooooooooo####....        ",
"          .ooooooooooooo#######.        ",
"          .ooooooooooooo#######..       ",
"          .ooooooooooooo########.       ",
"         ..oooooooooooo#########.       ",
"         .oooooooooooo########...       ",
"         .ooooooooooo#########.         ",
"         .oooooooooo=====...==.         ",
"         .ooooooooo=====.==o.=.         ",
"         ..ooooooo.......===.=.         ",
"          .oooooo.$$=====...=..         ",
"          ..ooooo=$$=========.          ",
"           ..ooo============..          ",
"            .ooo============.           ",
"            ..============..            ",
"             ..++++&&++++...            ",
"              .++&&&&&&++.              ",
"              .+&&&&&&&&+.              ",
"              .&&&XXXX&&&.              ",
"              .&&&XXXX&&&.              ",
"              .&&&XXXX&&&.              ",
"              .&&+XXXX+&&.              ",
"              .&++XXXX++&.              ",
"              .+++XXXX+++.              ",
"              .++++===+++.              ",
"              .++++==++++.              ",
"              .++++++++++.              ",
"              .@@@@@@@@@@..             ",
"              ..@@@@@@@@@@.             ",
"            ....@@@@@@@@@@..            ",
"            .--..@@@@@@@@@@.            ",
"            .---.-------OOO-.           ",
"            .---..----------.           ",
"            ..---..---------.           ",
"             ................           ",
"                                        "
};
