/* XPM */
static char *_0b5fa7bf3784825efa29a3286e507d7Egz3FDOEBce9QxyJ[] = {
/* columns rows colors chars-per-pixel */
"40 40 138 2 ",
"   c None",
".  c black",
"X  c #000101",
"o  c #020403",
"O  c #050404",
"+  c #030806",
"@  c #030907",
"#  c #131110",
"$  c #141211",
"%  c #171514",
"&  c #181614",
"*  c #1A1716",
"=  c #221E1C",
"-  c #2A2623",
";  c #282B29",
":  c #421E1E",
">  c #431E1E",
",  c #421E1F",
"<  c #421F1F",
"1  c #431F1F",
"2  c #442020",
"3  c #452121",
"4  c #452022",
"5  c #472323",
"6  c #4B2929",
"7  c #4D2B2B",
"8  c #502E2F",
"9  c #522F2E",
"0  c #40332C",
"q  c #4D2C32",
"w  c #522D37",
"e  c #483932",
"r  c #533131",
"t  c #543333",
"y  c #563535",
"u  c #1D4F3F",
"i  c #1E4F3F",
"p  c #1D503F",
"a  c #1E503F",
"s  c #1B194C",
"d  c #1B1857",
"f  c #211F51",
"g  c #222051",
"h  c #181478",
"j  c #191A79",
"k  c #5C3A41",
"l  c #1D4F40",
"z  c #1E4F40",
"x  c #1E4D43",
"c  c #1D5040",
"v  c #1D5041",
"b  c #1E5040",
"n  c #1F5040",
"m  c #1E5041",
"M  c #1F5141",
"N  c #215242",
"B  c #215243",
"V  c #225343",
"C  c #225344",
"Z  c #255546",
"A  c #275747",
"S  c #724958",
"D  c #44426C",
"F  c #825474",
"G  c #866661",
"H  c #171381",
"J  c #181380",
"K  c #181381",
"L  c #1E1A83",
"P  c #867390",
"I  c #9375A2",
"U  c #AB75AC",
"Y  c #A37CB8",
"T  c #A37DB9",
"R  c #A47FBB",
"E  c #A47FBC",
"W  c #A57FBC",
"Q  c #AA7FBC",
"!  c #B67EBB",
"~  c #B77FBC",
"^  c #7F8583",
"/  c #7FB7BC",
"(  c #9998AE",
")  c #9D8ABC",
"_  c #9A8FBC",
"`  c #8F9FBC",
"'  c #9695BC",
"]  c #9696BC",
"[  c #929BBC",
"{  c #A586B5",
"}  c #AE80B6",
"|  c #A480BC",
" . c #A185BC",
".. c #B680B9",
"X. c #B284BC",
"o. c #B881BC",
"O. c #A09FB4",
"+. c #A393BC",
"@. c #8AA6BC",
"#. c #8AA7BC",
"$. c #86ADBC",
"%. c #89A8BC",
"&. c #88A9BC",
"*. c #89ADBC",
"=. c #83B1BC",
"-. c #82B2BC",
";. c #81B4BC",
":. c #81B5BC",
">. c #82B4BC",
",. c #80B6BC",
"<. c #81B6BC",
"1. c #A7BAB5",
"2. c #C5A99F",
"3. c #E4CBBF",
"4. c #E5CCBF",
"5. c #C1CFCA",
"6. c #C4D1CD",
"7. c #C6D4CF",
"8. c #D1DCD8",
"9. c #D1DDD9",
"0. c #D3DDDA",
"q. c #D3DEDA",
"w. c #E1D0C5",
"e. c #EAD0C3",
"r. c #EAD1C4",
"t. c #ECD2C5",
"y. c #EDD3C5",
"u. c #EDD2C6",
"i. c #ECD3C6",
"p. c #EDD3C6",
"a. c #EDD3C7",
"s. c #EED3C6",
"d. c #EDD4C6",
"f. c #EDD4C7",
"g. c #E5E5EA",
"h. c #E8E7EC",
"j. c #E9E8ED",
"k. c gray99",
/* pixels */
"                                                                                ",
"                            : : : : : : 2 : : : : :                             ",
"                          : : : : : : y y y k : : : :                           ",
"                        : : 6 y y 6 : : 8 E E E / q :                           ",
"                      : : t y y y y r : / -.) E ,./ I :                         ",
"                      : : y y : 2 y y Y $.,./ / &.' #./ w :                     ",
"                      : : 7 : : : F ,.` / / / / / ,.R  .,.| Y                   ",
"                      : : : : 2 ! ~ *./ { ,./ ' / / / #.,./ E                   ",
"                      : : : 2 S ~ ~ ~ ~ ,.P / / ,._ &./ /                       ",
"                    : : : : s.e.8 : : U / / } / -.E E [ -.                      ",
"                    : : : 2.s.s.4.s.3.2 ..,./ +.X./ Q o.                        ",
"                    : : : s.s.. . & s.s.s.s.. $ - w.s.s.                        ",
"                    : : G s.= s.e s.. s.s.. s.0 s.% s.s.                        ",
"                      f.s.s.$ r.s.s.. O . . s.s.s.. s.s.                        ",
"                      s.s.s.s.# & & s.s.s.s.. . . s.s.f.                        ",
"                        s.s.s.s.s.s.s.s.s.s.s.s.s.s.s.s.                        ",
"                        s.s.s.s.s.s.s.s.s.s.s.s.s.s.f.                          ",
"                          s.s.s.s.s.s.s.s.s.s.s.s.s.                            ",
"                            s.f.s.s.s.s.s.s.s.s.s.                              ",
"                                b b b b . b b b b 1.                            ",
"                            q.6.b b b b . b b b b 7.q.                          ",
"                          q.q.q.q.N b b @ b b b 5.q.q.q.                        ",
"                          C q.q.q.q.C l @ b b q.q.q.b b b                       ",
"                        l b b q.q.q.q.N . b 5.q.q.Z b b b a                     ",
"                        b a b b q.q.q.q.. q.q.q.b b b b b b                     ",
"                      i b b b b b q.q.q.; q.q.b b b b b b b b                   ",
"                      b b b b b b b Z q.^ q.N b b b b b b b l                   ",
"                      a b b b b b b b b . b b b b b b b l b b                   ",
"                      b b b b b b b b b . b b b b b b b b b b                   ",
"                      s.s.s.b b b b b b . b b b b b b b s.s.s.                  ",
"                      s.s.  l l l l l b o b l l i b b b   s.s.                  ",
"                            J J J J J J J j J J H H J J                         ",
"                            J h d J J L J J J J J J J J                         ",
"                            k.O.g f k.k.    k.h.s j.k.k.                        ",
"                            k.k.g.D k.k.    k.k.( s k.k.                        ",
"                              k.k.k.k.        k.k.k.k.                          ",
"                                                                                ",
"                                                                                ",
"                                                                                ",
"                                                                                "
};
