/* XPM */
static char *d5cbafdf2e3f46868409989735dec1c5[] = {
/* columns rows colors chars-per-pixel */
"40 40 4 1 ",
"  c None",
". c black",
"X c #A86733",
"o c #EB9D50",
/* pixels */
"                                        ",
"                                        ",
"                                        ",
"                                        ",
"                                        ",
"                                        ",
"                                        ",
"               ..........               ",
"             ...XXXXXXXX...             ",
"            ..XXXXXooooXXX..            ",
"          ...XXoooXXooXXoXX...          ",
"         ..XXXoooooXXXXoooXXX..         ",
"         .XXooXooooXXXooooooXX.         ",
"        ..XoooXXooXXoXXooooXXX..        ",
"        .XXooooXXXXoooXXooXXXXX.        ",
"        .XXoooooXXXooooXXoXXooX.        ",
"        .XXXooooXXXoooooXXXoooX.        ",
"        .XoXXooXXoXXoooXXXXXooX.        ",
"        .XooXXXXoooXXooXXXoXXoX.        ",
"        .XoooXXoooooXXXXXoooXXX.        ",
"        .XooXXXXoooooXXXoooooXX.        ",
"        .XoXXoXXXoooXXXXooooooX.        ",
"        .XXXooooXXooXooXXoooooX.        ",
"        .XXooooooXXXXoooXXoooXX.        ",
"        ..XooooooXXXoooooXXooX..        ",
"         .XXooooXXXXXoooooXXXX.         ",
"         ..XXXoXXXooXXooooXXX..         ",
"          ...XXXoooooXXooXX...          ",
"            ..XXXoooooXXXX..            ",
"             ...XXXXXXXX...             ",
"               ..........               ",
"                                        ",
"                                        ",
"                                        ",
"                                        ",
"                                        ",
"                                        ",
"                                        ",
"                                        ",
"                                        "
};
