/* XPM */
static char *e5bc40c212934d18a8406581eb17ff6e9bTWQSVT1OLM136m[] = {
/* columns rows colors chars-per-pixel */
"40 40 84 1 ",
"  c None",
". c black",
"X c #010000",
"o c #010101",
"O c #020101",
"+ c #040302",
"@ c #060403",
"# c #0B0805",
"$ c #0B0806",
"% c #0D0906",
"& c #0F0B07",
"* c #150F0B",
"= c #1B140E",
"- c #1C140E",
"; c #211811",
": c #392A1D",
"> c #3C2C1E",
", c #413021",
"< c #433122",
"1 c #4B3725",
"2 c #4B3726",
"3 c #4D3827",
"4 c #72543A",
"5 c #74543A",
"6 c #8C6747",
"7 c #916A49",
"8 c #A27752",
"9 c #AD7E57",
"0 c #AE7F58",
"q c #B7855D",
"w c #C18D61",
"e c #CB9466",
"r c #CC9567",
"t c #CE9668",
"y c #CF9768",
"u c #CF9769",
"i c #D09869",
"p c #D19869",
"a c #D19969",
"s c #D1996A",
"d c #D29A6B",
"f c #D39A6B",
"g c #D39B6C",
"h c #D49B6C",
"j c #D49C6D",
"k c #D59D6D",
"l c #D59D6E",
"z c #D69E6E",
"x c #D79E6F",
"c c #D89F70",
"v c #D8A070",
"b c #DBA272",
"n c #DCA273",
"m c #DCA374",
"M c #DDA475",
"N c #DEA575",
"B c #DFA676",
"V c #E0A777",
"C c #E1A778",
"Z c #E1A878",
"A c #E2A879",
"S c #E2A979",
"D c #E4AA7B",
"F c #E5AB7B",
"G c #E6AC7C",
"H c #E7AC7D",
"J c #E7AD7D",
"K c #E8AD7D",
"L c #E8AE7E",
"P c #E9AE7E",
"I c #E9AF7F",
"U c #EAAF7F",
"Y c #EAB080",
"T c #EBB080",
"R c #EBB180",
"E c #EBB181",
"W c #ECB181",
"Q c #ECB282",
"! c #EDB282",
"~ c #EDB382",
"^ c #EDB383",
"/ c #EEB383",
"( c #EEB484",
") c #EFB484",
/* pixels */
"                                        ",
"                                        ",
"                                        ",
"                                        ",
"                                        ",
"                                        ",
"                                        ",
"                ........                ",
"              ..$euiur*...              ",
"             .@iiijiiiii0...            ",
"            .;iii))iii))Ziu..           ",
"           .-iiHiiiiPii^iiii...         ",
"          .%ii))Hii^)^iii^)iie..        ",
"          $ii))^iiiiP)iiim))ii..        ",
"         .iiZ)^ii))iiiiRhiCiii..        ",
"         6iiiBii)))^iiP))iiiZiew.       ",
"        .i))iii))))iiiiP)iiiPciu.       ",
"        .i))iiii))ii^^iigibiiFii.       ",
"        +iiii^Viiii^)^)iig))iiii.       ",
"        .iiiR))Fii^)))jiii^)^iii.       ",
"        .iiiP))iiiB))Big)ii))ii3.       ",
"        .ijii)iiRiiPZii))^ii)Bi.        ",
"        .=i)iii^))iiii))))Piji>.        ",
"         .ijiii)))^ii))))))iii..        ",
"         .:iinic)^iiij)))))Ri%.         ",
"          .ii)giZii)biH))))i4.          ",
"          ..7i)iii^))ii))^i8..          ",
"           ..<iiii))))iiHiq..           ",
"            ..5iiiB)))Fii<..            ",
"              ..1iiiiu91$..             ",
"               ..........               ",
"                                        ",
"                                        ",
"                                        ",
"                                        ",
"                                        ",
"                                        ",
"                                        ",
"                                        ",
"                                        "
};
