/* XPM */
static char *bedf0092ff4a4e6fbe26bc8f5bfb6269[] = {
/* columns rows colors chars-per-pixel */
"40 40 3 1 ",
"  c #AF783E",
". c #BF9061",
"X c #C48E56",
/* pixels */
"........................................",
"........................................",
"........................................",
"........................................",
"........................................",
"........................................",
"........................................",
".......................              ...",
"....XXXXXX.............              ...",
"....XXXXXX.............              ...",
"....XXXXXX.............              ...",
"....XXXXXX.............              ...",
"....XXXXXX.............              ...",
"....XXXXXX.............              ...",
"....XXXXXX.............              ...",
"....XXXXXX.............              ...",
"....XXXXXX..............................",
"........................................",
"........................................",
"........................................",
"........................................",
"...                .....XXXXXXXXXXX.....",
"...                .....XXXXXXXXXXX.....",
"...                .....XXXXXXXXXXX.....",
"...                .....XXXXXXXXXXX.....",
"...                .....XXXXXXXXXXX.....",
"...                .....XXXXXXXXXXX.....",
"...                .....XXXXXXXXXXX.....",
"...                .....XXXXXXXXXXX.....",
"...                .....XXXXXXXXXXX.....",
"........................XXXXXXXXXXX.....",
"........................XXXXXXXXXXX.....",
".........................XXXXXXXXXX.....",
"........................................",
"........................................",
"........................................",
"........................................",
"........................................",
"........................................",
"........................................"
};
